<?xml version="1.0" encoding="utf-8"?>
<!-- Generator: Adobe Illustrator 21.0.0, SVG Export Plug-In . SVG Version: 6.00 Build 0)  -->
<svg version="1.1" id="Layer_1" xmlns="http://www.w3.org/2000/svg" xmlns:xlink="http://www.w3.org/1999/xlink" x="0px" y="0px"
	 viewBox="0 0 285.4 60" style="enable-background:new 0 0 285.4 60;" xml:space="preserve">
<g id="u2tKT0_1_">
	<g>
		<path style="fill:#1B52A5;" d="M168.3,8.9c0,4.7,0,9.1,0,13.7c2,0,4,0,6.3,0c-0.5,0.8-0.7,1.2-1,1.6c-1.1,1.6-2.1,3.3-3.3,4.8
			c-1.7,2-2.3,4.1-2.1,6.7c0.2,2,0.1,4.1,0,6.1c-0.1,1.1,0.4,1.8,1.3,2.4c1.2,0.7,2.3,1.6,3.7,2.6c-0.7,0.4-1.2,0.7-1.7,1
			c-2.5,1.6-5,3.2-7.6,4.7c-0.4,0.3-1.2,0.3-1.7,0.1c-4.3-2.2-8.5-4.5-12.8-6.7c-0.4-0.2-0.8-0.6-1.4-1c1-0.7,1.9-1.1,2.6-1.8
			c0.5-0.4,1-1.1,1-1.7c0.1-2.5,0-5.1,0.1-7.6c0-0.9-0.3-1.3-1.3-1.3c-1.5,0-2.9,0-4.4,0c-0.8,0-1.3,0.2-1.2,1.2
			c0.1,3.7,0,7.3,0.2,10.9c0,0.6,0.8,1.2,1.4,1.6c1.3,0.9,1.3,1.3,0,2c-2.5,1.4-5.1,2.8-7.6,4.3c-0.7,0.4-1.2,0.4-2,0
			c-3.5-1.9-7-3.6-10.5-5.5c-0.4-0.2-0.7-0.6-1-0.9c0.3-0.3,0.6-0.8,1-1c2.6-0.9,3-2.7,2.9-5.2c-0.2-7.9-0.1-15.8,0-23.7
			c0-1-0.3-1.7-1.2-2.3c-2.1-1.4-4.1-2.8-6.1-4.2c-0.7-0.5-0.9-1,0-1.5c3-1.9,6-3.9,9-5.7c0.4-0.2,1.1-0.1,1.5,0.1
			c2.5,1.4,4.9,2.8,7.3,4.3c1,0.6,1.7,0.5,2.7,0c3.4-1.9,7-3.7,10.4-5.6c1-0.6,1.7-0.5,2.7,0c2.7,1.6,5.5,3,8.2,4.6
			c0.8,0.5,1.4,0.5,2.2-0.1c3-2,6.1-3.9,9.2-5.7c0.4-0.2,1.1-0.3,1.5-0.1c3.6,2.1,7.2,4.2,10.9,6.3c0.9,0.5,1.2,1.1,1.2,2.2
			c0,10,0,20.1,0,30.1c0,2.8,1.1,4.9,3.4,6.4c1.4,1,1.4,1.2,0,2.2c-2.4,1.7-4.8,3.4-7.1,5.1c-0.8,0.6-1.4,0.6-2.2,0.2
			c-2.9-1.3-5.2-3.1-6.4-6c-0.5-1.1-0.8-2.3-0.8-3.5c-0.1-9.5-0.1-19.1,0-28.6c0-1.4-0.3-2.3-1.8-2.9
			C171.8,10.8,170.1,9.8,168.3,8.9z M145,30.3c0.1,0,0.2,0.1,0.3,0.1c0.3-0.4,0.6-0.8,0.9-1.2c1.2-1.7,2.3-3.5,3.5-5.2
			c0.5-0.7,1.2-1.1,2-2c0-1.7-0.1-3.8,0-5.9c0.2-2.3-0.3-4-2.8-4.7c-1.4-0.4-2.6-1.3-4-2C145,16.4,145,23.3,145,30.3z M144.2,9.1
			c-1.9,0.1-2,1.2-2,2.4c0,10.1,0,20.3-0.1,30.4c0,1.6,0.6,2.3,2.1,2.6C144.2,32.7,144.2,21,144.2,9.1z M167.4,8.5
			c-1.2-0.4-1.7,0-1.7,1.1c0,2.7,0.1,5.3,0.1,8c0,1.6,0,3.2,0,4.9c0.6,0,1.1,0,1.6,0C167.4,17.8,167.4,13.2,167.4,8.5z M166.4,32.3
			c-0.2,0.1-0.3,0.3-0.5,0.4c0,2.7,0,5.4,0,8.1c0,1.2,0.5,1.7,1.7,1.6c0-3,0-6.1-0.1-9.1C167.5,33,166.8,32.7,166.4,32.3z"/>
		<path style="fill:#1B52A5;" d="M194,39.7c0.3-2.5,0.5-4.4,0.9-6.2c0.8-4.6,4.2-7.4,7.4-10.1c5-4.2,10.8-7,16.8-9.6
			c0.4-0.2,1-0.1,1.3,0c4.3,2.2,8.5,4.3,12.7,6.5c0.5,0.2,0.9,0.5,1.4,0.9c0.7,0.6,1,1.4,0,1.9c-2.2,1.2-2.3,3-2.2,5.2
			c0.1,3.8,0.1,7.6,0,11.4c0,1.2,0.4,2,1.4,2.6c1.3,0.8,2.6,1.7,3.9,2.6c1.1,0.7,1.1,1.4,0.1,2.2c-2.3,1.9-4.6,3.7-7,5.5
			c-0.4,0.3-1.2,0.2-1.6,0c-4-1.9-7.9-3.7-11.8-5.7c-1-0.5-1.7-0.4-2.6,0.3c-2,1.7-4.2,3.3-6.2,5.1c-0.8,0.7-1.6,0.9-2.6,0.7
			c-4.7-1-8.6-3.2-10.6-7.8C194.5,43.3,194.3,41.2,194,39.7z M217.4,35C217.4,35,217.4,35,217.4,35c0-2.7,0.1-5.4,0-8
			c0-0.6-0.4-1.3-0.9-1.6c-1.5-1.1-3.1-2.1-4.6-3.1c-2-1.3-2-1.3-3.9,0.1c-0.2,0.2-0.4,0.4-0.7,0.6c-2.8,2.7-3.3,6-2.9,9.6
			c0.7,6.2,4.9,9.7,10,12.3c1.7,0.9,3-0.2,3-2.2C217.4,40.1,217.4,37.5,217.4,35z"/>
		<path style="fill:#1B52A5;" d="M263.1,6.8c1.1-0.4,2.2-0.7,3.2-1.1c3.9-1.2,7.8-2.5,11.7-3.6c2.1-0.6,2.3-0.5,2.3,1.6
			c0,12.4-0.1,24.8-0.1,37.2c0,1.4,0.2,2.4,1.6,3c1.1,0.5,2,1.3,3.1,2c0.7,0.5,0.8,0.9,0.1,1.5c-2.2,1.7-4.4,3.4-6.6,5.1
			c-0.3,0.2-1,0.2-1.4,0.1c-4-1.8-8.1-3.6-12.1-5.5c-1.5-0.7-1.6-1.2-0.3-2.1c1.6-1.2,1.7-2.8,1.7-4.5c0-9.8-0.2-19.7-0.2-29.5
			c0-2.1-1.4-2.9-3-3.7C263,7.1,263.1,6.9,263.1,6.8z"/>
		<path style="fill:#1B52A5;" d="M260.3,22.8c-1,0.5-1.6,1.1-2.3,1.2c-1.3,0.2-1.4,1.1-1.5,2c-0.1,2.6-0.1,5.3,0,7.9
			c0,2.7,0.1,5.4,0.3,8.2c0,0.6,0.5,1.3,1,1.7c1.3,0.9,2.7,1.6,4.3,2.5c-3.3,2.3-6.3,4.5-9.4,6.6c-0.2,0.2-0.8,0-1.2-0.1
			c-3.7-1.8-7.3-3.6-11-5.5c-1.2-0.6-1.3-1.2-0.2-1.9c1.8-1.1,2-2.6,1.9-4.4c-0.2-4.8-0.2-9.5-0.3-14.3c0-0.8-0.2-1.3-1-1.7
			c-1.2-0.5-2.3-1.3-3.4-1.9c-1.1-0.6-1-1.3-0.2-1.9c1.3-1,2.6-1.9,3.9-2.8c1.4-0.9,2.8-1.8,4.2-2.6c0.5-0.3,1.3-0.3,1.7-0.1
			c3.9,2.1,7.8,4.2,11.7,6.3C259.2,22,259.6,22.3,260.3,22.8z"/>
		<path style="fill:#1B52A5;" d="M0,49.8C0,35.1,0,20.6,0,6.2C0.1,6.1,0.2,6,0.3,6C5.6,6,10.9,5.7,16.2,6.3
			C22.9,7,27.4,11,29.2,17.6c2,7.1,2,14.3-0.1,21.5c-2.1,6.9-7.4,10.8-14.5,10.9c-4.3,0.1-8.7,0-13,0C1.1,49.9,0.6,49.9,0,49.8z
			 M3.2,9c0,1,0,2.1,0,3.1c0,11.2,0,22.3,0,33.5c0,1.4,0.4,1.9,1.8,1.8c2.9-0.1,5.8,0,8.8,0c5.9,0,10.3-3,11.9-8.5
			c2-6.8,2.2-13.6,0.2-20.4c-1.5-5.1-4.7-8.7-10.1-9.3C11.7,8.6,7.6,9,3.2,9z"/>
		<path style="fill:#1B52A5;" d="M57.2,49.7c0-1.7,0-3.4,0-5.4c-1,1.2-1.6,2.2-2.5,2.9c-4.1,3.5-8.9,3.8-13.9,2.4
			c-3.3-0.9-5.6-3.1-6.6-6.5c-2.5-9,2.3-16,11.3-16.2c5.1-0.1,6.8,0.6,11.3,5c0-2.9,0.3-5.8-0.1-8.6c-0.4-3-2.9-4.2-5.7-4.7
			c-4.1-0.7-8,0-11.9,1.4c-0.4,0.2-0.9,0.3-1.4,0.5c-0.2-2.8-0.2-2.8,2.2-3.6c4.4-1.3,8.9-1.8,13.4-0.6c4.4,1.2,6.8,4.6,6.8,9.2
			c0,7.3,0,14.6,0,21.9C60.2,50.2,60.2,50.2,57.2,49.7z M57,38.7c0.1-3.9-1.6-6.4-4.7-8.1c-2.3-1.3-4.9-1.5-7.5-1.2
			c-3.7,0.4-6.9,3-7.8,6.3c-1.1,4,0.1,8.3,3.2,10.3c1.5,0.9,3.3,1.5,5,1.7C51.5,48.6,57.2,44.7,57,38.7z"/>
		<path style="fill:#1B52A5;" d="M85,16.8c0.3-0.1,0.4-0.1,0.6-0.1c2.7-0.2,2.7-0.2,3.8,2.4c3.5,8.2,7,16.3,10.5,24.5
			c0.3,0.7,0.6,1.3,1.1,2.3c0.7-1.7,1.4-3.1,2-4.5c3.2-7.4,6.4-14.9,9.6-22.4c1.2-2.7,1.2-2.7,4.3-2.2c-1,2.4-2.1,4.7-3.1,7.1
			c-5.1,11.6-10.2,23.2-15.4,34.8c-0.6,1.4-1.2,1.5-3.7,1c1.1-2.6,2.1-5.2,3.4-7.7c0.8-1.6,0.7-3,0-4.6c-4.3-9.8-8.5-19.7-12.7-29.6
			C85.2,17.5,85.2,17.2,85,16.8z"/>
		<path style="fill:#1B52A5;" d="M77.5,5.9c1,0,2,0,3,0c0,0.4,0.1,0.9,0.1,1.4c0,13.6,0,27.2,0,40.9c0,1.5-0.5,1.8-1.9,1.8
			c-1,0-1.5-0.2-1.4-1.4c0-13.8,0-27.6,0-41.5C77.4,6.8,77.5,6.4,77.5,5.9z"/>
		<path style="fill:#1B52A5;" d="M70.9,49.8c-1.2,0-2.2,0-3.3,0c0-11,0-22,0-33.2c0.9,0,1.7-0.2,2.6-0.1c0.3,0,0.6,0.5,0.7,0.8
			c0.1,1.1,0,2.2,0,3.4c0,9.1,0,18.2,0,27.3C70.9,48.6,70.9,49.1,70.9,49.8z"/>
		<path style="fill:#1B52A5;" d="M246.3,8.4c0.2-3.7,1.6-5.8,4-7.2c1.5-0.9,3.8-0.4,5.1,0.9c1.2,1.2,1.6,3.6,0.8,5.4
			c-1.3,2.7-3.3,4.8-6,6.1c-1.1,0.6-2,0.4-2.5-0.8C247.2,11.1,246.6,9.4,246.3,8.4z"/>
		<path style="fill:#1B52A5;" d="M71.2,7.7c0,1.3,0,2.6,0,3.9c0,0.3-0.5,0.8-0.8,0.8c-1.1,0.1-2.2,0-3.4,0c0-1.7,0-3.1,0-4.7
			C68.3,7.7,69.7,7.7,71.2,7.7z"/>
	</g>
</g>
</svg>
