<svg xmlns="http://www.w3.org/2000/svg" xmlns:xlink="http://www.w3.org/1999/xlink" viewBox="0 0 295.91 158.07"><defs><style>.cls-1{isolation:isolate;}.cls-2{fill:url(#linear-gradient);}.cls-3{fill:url(#linear-gradient-2);}.cls-4{fill:url(#linear-gradient-3);}.cls-5{fill:url(#linear-gradient-4);}.cls-6{fill:url(#linear-gradient-5);}.cls-7{fill:url(#linear-gradient-6);}.cls-8{fill:url(#linear-gradient-7);}.cls-9{fill:url(#linear-gradient-8);}.cls-10{fill:url(#linear-gradient-9);}.cls-11{fill:url(#linear-gradient-10);}.cls-12{fill:url(#linear-gradient-11);}.cls-13{fill:url(#linear-gradient-12);}.cls-14{opacity:0.5;mix-blend-mode:multiply;}.cls-15{fill:#b76e11;}.cls-16,.cls-17,.cls-18,.cls-19,.cls-20,.cls-21,.cls-22,.cls-23,.cls-24,.cls-25,.cls-26,.cls-27,.cls-28,.cls-29,.cls-30,.cls-31,.cls-32,.cls-33,.cls-34,.cls-35{stroke:#d68119;stroke-miterlimit:10;}.cls-16{fill:url(#New_Gradient_Swatch_1);}.cls-17{fill:url(#New_Gradient_Swatch_1-2);}.cls-18{fill:url(#New_Gradient_Swatch_1-3);}.cls-19{fill:url(#New_Gradient_Swatch_1-4);}.cls-20{fill:url(#New_Gradient_Swatch_1-5);}.cls-21{fill:url(#New_Gradient_Swatch_1-6);}.cls-22{fill:url(#New_Gradient_Swatch_1-7);}.cls-23{fill:url(#New_Gradient_Swatch_1-8);}.cls-24{fill:url(#New_Gradient_Swatch_1-9);}.cls-25{fill:url(#New_Gradient_Swatch_1-10);}.cls-26{fill:url(#New_Gradient_Swatch_1-11);}.cls-27{fill:url(#New_Gradient_Swatch_1-12);}.cls-28{fill:url(#New_Gradient_Swatch_1-13);}.cls-29{fill:url(#New_Gradient_Swatch_1-14);}.cls-30{fill:url(#New_Gradient_Swatch_1-15);}.cls-31{fill:url(#New_Gradient_Swatch_1-16);}.cls-32{fill:url(#New_Gradient_Swatch_1-17);}.cls-33{fill:url(#New_Gradient_Swatch_1-18);}.cls-34{fill:url(#New_Gradient_Swatch_1-19);}.cls-35{fill:url(#New_Gradient_Swatch_1-20);}</style><linearGradient id="linear-gradient" x1="176.63" y1="389.42" x2="386.41" y2="294.52" gradientUnits="userSpaceOnUse"><stop offset="0.17" stop-color="#e18f19"/><stop offset="0.19" stop-color="#e99818"/><stop offset="0.23" stop-color="#f4a518"/><stop offset="0.28" stop-color="#faad17"/><stop offset="0.39" stop-color="#fcaf17"/><stop offset="0.44" stop-color="#f2a318"/><stop offset="0.51" stop-color="#e59419"/><stop offset="0.58" stop-color="#e18f19"/><stop offset="0.62" stop-color="#f0a118"/><stop offset="0.67" stop-color="#f9ac17"/><stop offset="0.72" stop-color="#fcaf17"/><stop offset="0.76" stop-color="#eca016"/><stop offset="0.83" stop-color="#db8f16"/><stop offset="0.91" stop-color="#d08515"/><stop offset="1" stop-color="#cd8215"/></linearGradient><linearGradient id="linear-gradient-2" x1="188.43" y1="413.55" x2="397.44" y2="319" xlink:href="#linear-gradient"/><linearGradient id="linear-gradient-3" x1="181.06" y1="397.47" x2="390.59" y2="302.68" xlink:href="#linear-gradient"/><linearGradient id="linear-gradient-4" x1="37.54" y1="122.81" x2="245.34" y2="28.81" xlink:href="#linear-gradient"/><linearGradient id="linear-gradient-5" x1="194.13" y1="425.67" x2="403.37" y2="331.02" xlink:href="#linear-gradient"/><linearGradient id="linear-gradient-6" x1="206.16" y1="452.08" x2="415.62" y2="357.32" xlink:href="#linear-gradient"/><linearGradient id="linear-gradient-7" x1="197.14" y1="433.49" x2="406.51" y2="338.77" xlink:href="#linear-gradient"/><linearGradient id="linear-gradient-8" x1="43.7" y1="139.2" x2="252.2" y2="44.87" xlink:href="#linear-gradient"/><linearGradient id="linear-gradient-9" x1="214.2" y1="469.68" x2="423.01" y2="375.22" xlink:href="#linear-gradient"/><linearGradient id="linear-gradient-10" x1="55.83" y1="163.74" x2="263.61" y2="69.74" xlink:href="#linear-gradient"/><linearGradient id="linear-gradient-11" x1="229.7" y1="504.38" x2="439.08" y2="409.66" xlink:href="#linear-gradient"/><linearGradient id="linear-gradient-12" x1="229.17" y1="503.65" x2="439.15" y2="408.66" xlink:href="#linear-gradient"/><linearGradient id="New_Gradient_Swatch_1" x1="150.64" y1="391.47" x2="396.14" y2="258.47" gradientUnits="userSpaceOnUse"><stop offset="0.17" stop-color="#e49f15"/><stop offset="0.19" stop-color="#edab13"/><stop offset="0.23" stop-color="#f7b810"/><stop offset="0.29" stop-color="#fdc00e"/><stop offset="0.39" stop-color="#ffc20e"/><stop offset="0.44" stop-color="#f3b311"/><stop offset="0.52" stop-color="#e8a414"/><stop offset="0.58" stop-color="#e49f15"/><stop offset="0.58" stop-color="#e7a214"/><stop offset="0.62" stop-color="#f4b411"/><stop offset="0.67" stop-color="#fcbf0f"/><stop offset="0.72" stop-color="#ffc20e"/><stop offset="0.73" stop-color="#fcbe0f"/><stop offset="0.81" stop-color="#efad12"/><stop offset="0.9" stop-color="#e7a214"/><stop offset="1" stop-color="#e49f15"/></linearGradient><linearGradient id="New_Gradient_Swatch_1-2" x1="200.61" y1="483.69" x2="446.1" y2="350.69" xlink:href="#New_Gradient_Swatch_1"/><linearGradient id="New_Gradient_Swatch_1-3" x1="159.35" y1="407.54" x2="404.85" y2="274.54" xlink:href="#New_Gradient_Swatch_1"/><linearGradient id="New_Gradient_Swatch_1-4" x1="168.07" y1="423.64" x2="413.57" y2="290.64" xlink:href="#New_Gradient_Swatch_1"/><linearGradient id="New_Gradient_Swatch_1-5" x1="174.69" y1="435.85" x2="420.19" y2="302.85" xlink:href="#New_Gradient_Swatch_1"/><linearGradient id="New_Gradient_Swatch_1-6" x1="-5.16" y1="90.3" x2="240.33" y2="-42.7" xlink:href="#New_Gradient_Swatch_1"/><linearGradient id="New_Gradient_Swatch_1-7" x1="167.66" y1="422.88" x2="413.16" y2="289.88" xlink:href="#New_Gradient_Swatch_1"/><linearGradient id="New_Gradient_Swatch_1-8" x1="175.35" y1="437.07" x2="420.85" y2="304.07" xlink:href="#New_Gradient_Swatch_1"/><linearGradient id="New_Gradient_Swatch_1-9" x1="23.75" y1="143.67" x2="269.25" y2="10.67" xlink:href="#New_Gradient_Swatch_1"/><linearGradient id="New_Gradient_Swatch_1-10" x1="18.45" y1="133.89" x2="263.95" y2="0.89" xlink:href="#New_Gradient_Swatch_1"/><linearGradient id="New_Gradient_Swatch_1-11" x1="28.98" y1="153.33" x2="274.48" y2="20.32" xlink:href="#New_Gradient_Swatch_1"/><linearGradient id="New_Gradient_Swatch_1-12" x1="228.58" y1="535.33" x2="474.08" y2="402.33" xlink:href="#New_Gradient_Swatch_1"/><linearGradient id="New_Gradient_Swatch_1-13" x1="173.44" y1="433.55" x2="418.94" y2="300.55" xlink:href="#New_Gradient_Swatch_1"/><linearGradient id="New_Gradient_Swatch_1-14" x1="18.85" y1="134.62" x2="264.35" y2="1.62" xlink:href="#New_Gradient_Swatch_1"/><linearGradient id="New_Gradient_Swatch_1-15" x1="29.15" y1="153.64" x2="274.65" y2="20.64" xlink:href="#New_Gradient_Swatch_1"/><linearGradient id="New_Gradient_Swatch_1-16" x1="201.86" y1="486.01" x2="447.36" y2="353.01" xlink:href="#New_Gradient_Swatch_1"/><linearGradient id="New_Gradient_Swatch_1-17" x1="44.6" y1="182.16" x2="290.1" y2="49.16" xlink:href="#New_Gradient_Swatch_1"/><linearGradient id="New_Gradient_Swatch_1-18" x1="216.52" y1="513.06" x2="462.02" y2="380.06" xlink:href="#New_Gradient_Swatch_1"/><linearGradient id="New_Gradient_Swatch_1-19" x1="216.57" y1="513.16" x2="462.07" y2="380.16" xlink:href="#New_Gradient_Swatch_1"/><linearGradient id="New_Gradient_Swatch_1-20" x1="218.43" y1="516.59" x2="463.93" y2="383.59" xlink:href="#New_Gradient_Swatch_1"/></defs><title>good_morning_america</title><g class="cls-1"><g id="Layer_1" data-name="Layer 1"><path class="cls-2" d="M256.71,355.17a19.09,19.09,0,0,0,18.75-15.77,18.74,18.74,0,0,0,37.24-2.45,18.9,18.9,0,1,0,0-1,18.73,18.73,0,0,0-37.18-2.81H255.56v9.24h7.25c-1.51,2-3.56,2.47-6.1,2.47-7.75,0-8.35-6.46-8.35-8.44s.58-8.72,8-8.72c3.14,0,5.75,1.13,7,3l.57.89h10.94L274,329c-2-5.55-8.75-11.46-17.43-11.46a18.81,18.81,0,1,0,.17,37.62ZM294,344.89a8.54,8.54,0,1,1,8.15-8.49A8.33,8.33,0,0,1,294,344.89Zm37.46-17.06a8.54,8.54,0,1,1-8.15,8.57A8.38,8.38,0,0,1,331.42,327.83Z" transform="translate(-163.96 -316.21)"/><path class="cls-3" d="M372.86,352.18a17.7,17.7,0,0,0,9.36-15.73,18.5,18.5,0,0,0-6.44-14c-2.25-1.81-6.31-4.22-15.54-4.22h-9.89v36.31h10C365.7,354.51,369.9,353.73,372.86,352.18Zm-12-7.16V327.7c3.3.06,5.93.51,8,2.25a8.57,8.57,0,0,1,3,6.5,8.07,8.07,0,0,1-4.12,7.22A14,14,0,0,1,360.81,345Z" transform="translate(-163.96 -316.21)"/><path class="cls-4" d="M211.08,379.12l5.08,13.17H224L229.06,379v13.25h10.87v-13a18.57,18.57,0,1,0,0-9.56V356.58h-13.6l-6.23,17.51-6.3-17.51H200.21v35.72h10.87Zm47.07-12.85a8.16,8.16,0,1,1-8,8.2A8.12,8.12,0,0,1,258.15,366.27Z" transform="translate(-163.96 -316.21)"/><rect class="cls-5" x="175.37" y="40.37" width="9.9" height="35.72"/><path class="cls-6" d="M306,392.29h10.13V375.87l10.56,16.43h10.72V356.58H326.58v16.37l-10.42-16.37H305.58v35.1l-9-12a11.43,11.43,0,0,0,3.53-2.29,13,13,0,0,0,3.7-9,11.67,11.67,0,0,0-4.53-9.2c-2.27-1.81-5-2.58-9.1-2.58H277.33v35.72h10.87V384.2l5.69,8.09H306Zm-17.83-26.36h1.9c3.45,0,3.83,2,3.83,2.91,0,1.36-.66,3-3.83,3h-1.9Z" transform="translate(-163.96 -316.21)"/><path class="cls-7" d="M371.81,356.58v16.37l-10.42-16.37H350.81v35.72H361.4V375.87L372,392.29h10.72V380.66a19.17,19.17,0,0,0,17.84,11.69c10.24,0,18.9-8.21,18.9-17.92v-3.54h-20v9h7.18c-1.5,1.91-3.53,2.34-6,2.34-7.71,0-8.3-6.25-8.3-8.17s.58-8.45,8-8.45c3.13,0,5.72,1.1,6.94,2.93l.57.87h10.91l-.93-2.55c-2-5.4-8.72-11.14-17.36-11.14a19,19,0,0,0-17.67,11.66V356.58Z" transform="translate(-163.96 -316.21)"/><path class="cls-8" d="M185.28,436.06h13.6l3,7.49h27.38V423l7.47,20.59h9.91l7.47-20.7v20.7h13.32V396.46h-17l-8.71,24.65-8.82-24.65h-17v43.85l-17.43-43.85h-12l-19.56,47.09h15.38Zm3.31-10.46,3.4-10.29,3.4,10.29Z" transform="translate(-163.96 -316.21)"/><polygon class="cls-9" points="136.65 91.53 136.65 80.25 107.27 80.25 107.27 127.34 136.65 127.34 136.65 115.07 120.98 115.07 120.98 108.73 135.95 108.73 135.95 97.45 120.98 97.45 120.98 91.53 136.65 91.53"/><path class="cls-10" d="M318.37,431.09l8.47,12.46h16.08l-12-15.94a14.67,14.67,0,0,0,5-3.14c4.09-3.61,5.17-9.89,5.17-12.71a16.56,16.56,0,0,0-6.32-12.67c-3.29-2.44-7.34-2.63-12.71-2.63h-17v47.09h13.26Zm0-23.35H322c6,0,6.42,3.56,6.42,4.66,0,1.78-.83,4.77-6.42,4.77h-3.62Z" transform="translate(-163.96 -316.21)"/><rect class="cls-11" x="181.98" y="80.25" width="12.73" height="47.09"/><path class="cls-12" d="M411.39,424.34v-.11H396.51l-.25.62a13,13,0,0,1-1.91,3.09,11.18,11.18,0,0,1-7.5,2.88,10.92,10.92,0,1,1,0-21.84,11.29,11.29,0,0,1,4.22.83,14.09,14.09,0,0,1,5.06,5l.28.52h14.42l.22-.22h.63l-.21-.82a4.32,4.32,0,0,0,0-1.9c-.5-1.36-4.34-11-14.13-15.09a25.7,25.7,0,0,0-21.91.47c-9.12,3.64-14.57,11.49-14.57,22a23.47,23.47,0,0,0,12.57,21.07,25.59,25.59,0,0,0,34.4-7.12l-4.06,9.77h15.38l3-7.49h13.6l3,7.49H454l-18.72-47.09h-12l-11.58,27.89Zm14,1.25,3.4-10.29,3.4,10.29Z" transform="translate(-163.96 -316.21)"/><path class="cls-13" d="M453.14,463a793.74,793.74,0,0,0-140.77-12.84c-87.55,0-142.12,15.66-142.66,15.81l.44,1.91a745.37,745.37,0,0,1,113.7-8.63c82.56,0,138.21,13.3,140.36,14.42l.67.37.54-.54c2-2,18.07-7.22,27.69-8.56l6.09-.85Z" transform="translate(-163.96 -316.21)"/><g class="cls-14"><path class="cls-15" d="M256.71,355.17a19.09,19.09,0,0,0,18.75-15.77,18.74,18.74,0,0,0,37.24-2.45,18.9,18.9,0,1,0,0-1,18.73,18.73,0,0,0-37.18-2.81H255.56v9.24h7.25c-1.51,2-3.56,2.47-6.1,2.47-7.75,0-8.35-6.46-8.35-8.44s.58-8.72,8-8.72c3.14,0,5.75,1.13,7,3l.57.89h10.94L274,329c-2-5.55-8.75-11.46-17.43-11.46a18.81,18.81,0,1,0,.17,37.62ZM294,344.89a8.54,8.54,0,1,1,8.15-8.49A8.33,8.33,0,0,1,294,344.89Zm37.46-17.06a8.54,8.54,0,1,1-8.15,8.57A8.38,8.38,0,0,1,331.42,327.83Z" transform="translate(-163.96 -316.21)"/><path class="cls-15" d="M372.86,352.18a17.7,17.7,0,0,0,9.36-15.73,18.5,18.5,0,0,0-6.44-14c-2.25-1.81-6.31-4.22-15.54-4.22h-9.89v36.31h10C365.7,354.51,369.9,353.73,372.86,352.18Zm-12-7.16V327.7c3.3.06,5.93.51,8,2.25a8.57,8.57,0,0,1,3,6.5,8.07,8.07,0,0,1-4.12,7.22A14,14,0,0,1,360.81,345Z" transform="translate(-163.96 -316.21)"/><path class="cls-15" d="M211.08,379.12l5.08,13.17H224L229.06,379v13.25h10.87v-13a18.57,18.57,0,1,0,0-9.56V356.58h-13.6l-6.23,17.51-6.3-17.51H200.21v35.72h10.87Zm47.07-12.85a8.16,8.16,0,1,1-8,8.2A8.12,8.12,0,0,1,258.15,366.27Z" transform="translate(-163.96 -316.21)"/><rect class="cls-15" x="175.37" y="40.37" width="9.9" height="35.72"/><path class="cls-15" d="M306,392.29h10.13V375.87l10.56,16.43h10.72V356.58H326.58v16.37l-10.42-16.37H305.58v35.1l-9-12a11.43,11.43,0,0,0,3.53-2.29,13,13,0,0,0,3.7-9,11.67,11.67,0,0,0-4.53-9.2c-2.27-1.81-5-2.58-9.1-2.58H277.33v35.72h10.87V384.2l5.69,8.09H306Zm-17.83-26.36h1.9c3.45,0,3.83,2,3.83,2.91,0,1.36-.66,3-3.83,3h-1.9Z" transform="translate(-163.96 -316.21)"/><path class="cls-15" d="M371.81,356.58v16.37l-10.42-16.37H350.81v35.72H361.4V375.87L372,392.29h10.72V380.66a19.17,19.17,0,0,0,17.84,11.69c10.24,0,18.9-8.21,18.9-17.92v-3.54h-20v9h7.18c-1.5,1.91-3.53,2.34-6,2.34-7.71,0-8.3-6.25-8.3-8.17s.58-8.45,8-8.45c3.13,0,5.72,1.1,6.94,2.93l.57.87h10.91l-.93-2.55c-2-5.4-8.72-11.14-17.36-11.14a19,19,0,0,0-17.67,11.66V356.58Z" transform="translate(-163.96 -316.21)"/><path class="cls-15" d="M185.28,436.06h13.6l3,7.49h27.38V423l7.47,20.59h9.91l7.47-20.7v20.7h13.32V396.46h-17l-8.71,24.65-8.82-24.65h-17v43.85l-17.43-43.85h-12l-19.56,47.09h15.38Zm3.31-10.46,3.4-10.29,3.4,10.29Z" transform="translate(-163.96 -316.21)"/><polygon class="cls-15" points="136.65 91.53 136.65 80.25 107.27 80.25 107.27 127.34 136.65 127.34 136.65 115.07 120.98 115.07 120.98 108.73 135.95 108.73 135.95 97.45 120.98 97.45 120.98 91.53 136.65 91.53"/><path class="cls-15" d="M318.37,431.09l8.47,12.46h16.08l-12-15.94a14.67,14.67,0,0,0,5-3.14c4.09-3.61,5.17-9.89,5.17-12.71a16.56,16.56,0,0,0-6.32-12.67c-3.29-2.44-7.34-2.63-12.71-2.63h-17v47.09h13.26Zm0-23.35H322c6,0,6.42,3.56,6.42,4.66,0,1.78-.83,4.77-6.42,4.77h-3.62Z" transform="translate(-163.96 -316.21)"/><rect class="cls-15" x="181.98" y="80.25" width="12.73" height="47.09"/><path class="cls-15" d="M411.39,424.34v-.11H396.51l-.25.62a13,13,0,0,1-1.91,3.09,11.18,11.18,0,0,1-7.5,2.88,10.92,10.92,0,1,1,0-21.84,11.29,11.29,0,0,1,4.22.83,14.09,14.09,0,0,1,5.06,5l.28.52h14.42l.22-.22h.63l-.21-.82a4.32,4.32,0,0,0,0-1.9c-.5-1.36-4.34-11-14.13-15.09a25.7,25.7,0,0,0-21.91.47c-9.12,3.64-14.57,11.49-14.57,22a23.47,23.47,0,0,0,12.57,21.07,25.59,25.59,0,0,0,34.4-7.12l-4.06,9.77h15.38l3-7.49h13.6l3,7.49H454l-18.72-47.09h-12l-11.58,27.89Zm14,1.25,3.4-10.29,3.4,10.29Z" transform="translate(-163.96 -316.21)"/><path class="cls-15" d="M453.14,463a793.74,793.74,0,0,0-140.77-12.84c-87.55,0-142.12,15.66-142.66,15.81l.44,1.91a745.37,745.37,0,0,1,113.7-8.63c82.56,0,138.21,13.3,140.36,14.42l.67.37.54-.54c2-2,18.07-7.22,27.69-8.56l6.09-.85Z" transform="translate(-163.96 -316.21)"/></g><path class="cls-16" d="M255.3,353c10,0,18.44-8.12,18.44-17.73v-2.68H255.15V340h8.2c-1.86,3.83-4.82,4.51-8,4.51-7.36,0-9.59-5.25-9.59-9.58S247.85,325,255,325c3.89,0,6.69,1.51,8,3.54l.29.44h9.21l-.46-1.3c-1.91-5.32-8.49-11-16.92-11a18.36,18.36,0,0,0-18.53,18.13C236.59,344.84,245,353,255.3,353Z" transform="translate(-163.96 -316.21)"/><path class="cls-17" d="M402.86,391.8c10,0,18.36-7.89,18.36-17.22V372H402.71v7.18h8.16c-1.85,3.72-4.79,4.38-8,4.38-7.32,0-9.55-5.1-9.55-9.31s2.13-9.59,9.24-9.59c3.87,0,6.66,1.46,8,3.44l.29.43H420l-.46-1.26c-1.9-5.17-8.45-10.67-16.84-10.67-10.17,0-18.45,7.9-18.45,17.62S392.59,391.8,402.86,391.8Z" transform="translate(-163.96 -316.21)"/><path class="cls-18" d="M293.52,353a18.13,18.13,0,1,0-18.22-18A18.15,18.15,0,0,0,293.52,353Zm0-27.8a9.68,9.68,0,1,1-9.39,9.71A9.57,9.57,0,0,1,293.52,325.17Z" transform="translate(-163.96 -316.21)"/><path class="cls-19" d="M332,353a18.13,18.13,0,1,0-18.22-18A18.15,18.15,0,0,0,332,353Zm0-27.8a9.68,9.68,0,1,1-9.39,9.71A9.57,9.57,0,0,1,332,325.17Z" transform="translate(-163.96 -316.21)"/><path class="cls-20" d="M374,350a17,17,0,0,0,9.05-15.12,17.73,17.73,0,0,0-6.23-13.48c-2.19-1.75-6.16-4.07-15.3-4.07h-9.12v34.93h9.27C367,352.31,371.11,351.54,374,350Zm-12.71-25c4,0,7.17.43,9.65,2.52a9.69,9.69,0,0,1,3.44,7.38,9.2,9.2,0,0,1-4.78,8.24c-2.56,1.27-4.67,1.49-8.16,1.49h-.35V325Z" transform="translate(-163.96 -316.21)"/><polygon class="cls-21" points="64 57.58 64 75.54 73.11 75.54 73.11 41.21 60.91 41.21 53.8 61.03 46.6 41.21 34.41 41.21 34.41 75.54 43.51 75.54 43.51 57.68 50.45 75.54 57.06 75.54 64 57.58"/><path class="cls-22" d="M256.79,356.77a18.15,18.15,0,0,0-18.35,17.91c0,9.78,8.23,17.73,18.35,17.73s18.35-8,18.35-17.73A18.15,18.15,0,0,0,256.79,356.77Zm0,27.12a9.3,9.3,0,1,1,9.25-9.26A9.27,9.27,0,0,1,256.78,383.88Z" transform="translate(-163.96 -316.21)"/><path class="cls-23" d="M299.14,376.85a12.12,12.12,0,0,0,3.49-8.44,10.87,10.87,0,0,0-4.27-8.58c-2.13-1.68-4.73-2.4-8.7-2.4H277.49v34.33h9.1V381.32l7.4,10.43h9.89l-9.32-12.35A10.8,10.8,0,0,0,299.14,376.85Zm-12.54-11.92h3c4.71,0,5,3.3,5,4,0,1.21-.48,4-5,4h-3Z" transform="translate(-163.96 -316.21)"/><rect class="cls-24" x="177.14" y="41.21" width="8.1" height="34.33"/><polygon class="cls-25" points="151.34 56.38 163.76 75.54 173.17 75.54 173.17 41.21 164.06 41.21 164.06 60.35 151.78 41.21 142.52 41.21 142.52 75.54 151.34 75.54 151.34 56.38"/><polygon class="cls-26" points="197.74 56.38 210.16 75.54 219.57 75.54 219.57 41.21 210.47 41.21 210.47 60.35 198.18 41.21 188.92 41.21 188.92 75.54 197.74 75.54 197.74 56.38"/><path class="cls-27" d="M426.94,397l-19.23,45.9h13.55l3-7.62h15.36l3,7.62h13.56L437.87,397Zm9.85,29.63H427l4.9-14.7Z" transform="translate(-163.96 -316.21)"/><path class="cls-28" d="M183.94,397l-19.23,45.9h13.55l3-7.62h15.36l3,7.62h13.56L194.87,397Zm9.85,29.63H184l4.9-14.7Z" transform="translate(-163.96 -316.21)"/><polygon class="cls-29" points="75.97 107.86 66.19 80.76 50.52 80.76 50.52 126.66 62.13 126.66 62.13 100.94 71.55 126.66 80.27 126.66 89.69 100.79 89.69 126.66 101.3 126.66 101.3 80.76 85.63 80.76 75.97 107.86"/><polygon class="cls-30" points="107.27 126.66 135.36 126.66 135.36 116.18 119.28 116.18 119.28 107.73 134.64 107.73 134.64 98.25 119.28 98.25 119.28 90.23 135.36 90.23 135.36 80.76 107.27 80.76 107.27 126.66"/><path class="cls-31" d="M335.95,423.71c3.66-3.2,5-9,5-12.18a15.74,15.74,0,0,0-6.07-12.09c-3-2.23-6.75-2.47-12.42-2.47H306v45.9h11.55v-15l10.27,15h13.92l-12-15.76A13.33,13.33,0,0,0,335.95,423.71Zm-18.41-17.27h4.74c7.25,0,7.62,4.78,7.62,5.74,0,1.76-.74,5.85-7.62,5.85h-4.74Z" transform="translate(-163.96 -316.21)"/><rect class="cls-32" x="183.92" y="80.76" width="11.01" height="45.9"/><path class="cls-33" d="M413,425.23H399.45s-3,7.41-10.17,7.41-13.81-5.09-13.81-12.78c0-8.56,6.8-12.39,13.48-12.39s10.33,6.76,10.33,6.76H413a3,3,0,0,0,.09-1.65c-1.62-4.39-8.27-16.5-23-16.5-17.92,0-26.91,10.84-26.91,23.66,0,13.24,10.76,24,26.91,24,15.91,0,22.69-16.14,22.84-16.84A7.51,7.51,0,0,0,413,425.23Z" transform="translate(-163.96 -316.21)"/><path class="cls-34" d="M388.83,431.94a12.11,12.11,0,1,1,0-24.21A12.51,12.51,0,0,1,399.75,414H413a24.79,24.79,0,0,0-24.18-18.38c-13.76,0-24.91,10.84-24.91,24.21S375.08,444,388.83,444a24.77,24.77,0,0,0,24.26-18.71H399.92A12.49,12.49,0,0,1,388.83,431.94Z" transform="translate(-163.96 -316.21)"/><path class="cls-35" d="M166.33,467.67s117.33-34,290.33-3c-9.67,1.33-26.67,6.67-29,9C424,471.67,309.67,445.67,166.33,467.67Z" transform="translate(-163.96 -316.21)"/></g></g></svg>