<?xml version="1.0" encoding="UTF-8" standalone="no"?>
<!-- Created with Inkscape (http://www.inkscape.org/) -->

<svg
   xmlns:dc="http://purl.org/dc/elements/1.1/"
   xmlns:cc="http://creativecommons.org/ns#"
   xmlns:rdf="http://www.w3.org/1999/02/22-rdf-syntax-ns#"
   xmlns:svg="http://www.w3.org/2000/svg"
   xmlns="http://www.w3.org/2000/svg"
   xmlns:sodipodi="http://sodipodi.sourceforge.net/DTD/sodipodi-0.dtd"
   xmlns:inkscape="http://www.inkscape.org/namespaces/inkscape"
   width="320"
   height="180"
   viewBox="0 0 320 180"
   id="svg2"
   version="1.1"
   inkscape:version="0.91 r13725"
   sodipodi:docname="y.svg">
  <defs
     id="defs4">
    <clipPath
       clipPathUnits="userSpaceOnUse"
       id="clipPath3020">
      <path
         inkscape:connector-curvature="0"
         d="m 0,0 4802,0 0,1298.75 -4802,0 L 0,0 Z"
         id="path3022" />
    </clipPath>
  </defs>
  <sodipodi:namedview
     id="base"
     pagecolor="#ffffff"
     bordercolor="#666666"
     borderopacity="1.0"
     inkscape:pageopacity="0.0"
     inkscape:pageshadow="2"
     inkscape:zoom="1.5280136"
     inkscape:cx="49.293094"
     inkscape:cy="90"
     inkscape:document-units="px"
     inkscape:current-layer="text4175"
     showgrid="false"
     units="px"
     inkscape:window-width="1440"
     inkscape:window-height="768"
     inkscape:window-x="0"
     inkscape:window-y="1"
     inkscape:window-maximized="1"
     showguides="false" />
  <metadata
     id="metadata7">
    <rdf:RDF>
      <cc:Work
         rdf:about="">
        <dc:format>image/svg+xml</dc:format>
        <dc:type
           rdf:resource="http://purl.org/dc/dcmitype/StillImage" />
        <dc:title />
      </cc:Work>
    </rdf:RDF>
  </metadata>
  <g
     inkscape:label="Layer 1"
     inkscape:groupmode="layer"
     id="layer1"
     transform="translate(0,-872.36216)">
    <g
       transform="matrix(0.57819841,0,0,0.57819841,-137.64036,460.52816)"
       id="g3258">
      <g
         id="g4197"
         transform="matrix(0.95313801,0,0,0.95313801,24.12328,19.91869)">
        <g
           id="g4165"
           transform="translate(1.8145477,0)">
          <g
             id="g4179"
             transform="matrix(0.81659528,0,0,0.81659528,-101.45809,158.79161)">
            <g
               id="g4186"
               transform="matrix(0.80102947,0,0,0.80102947,82.212874,172.26847)">
              <g
                 id="g4193"
                 transform="matrix(1.0224128,0,0,1.0224128,-18.808657,19.843128)">
                <g
                   id="g4146"
                   transform="translate(0,5.4264484)">
                  <g
                     style="font-style:normal;font-weight:normal;font-size:98.05931091px;line-height:125%;font-family:sans-serif;letter-spacing:0px;word-spacing:0px;fill:#000000;fill-opacity:1;stroke:none;stroke-width:2.72181487;stroke-linecap:butt;stroke-linejoin:miter;stroke-miterlimit:4;stroke-dasharray:none;stroke-opacity:1"
                     id="text4175">
                    <g
                       id="g4260"
                       transform="translate(-8.3614198,0)">
                      <g
                         transform="matrix(1.1454393,0,0,1.1454393,-74.604178,-134.23498)"
                         id="g4171">
                        <rect
                           style="opacity:1;fill:#f26522;fill-opacity:1;stroke:none;stroke-width:40.82722092;stroke-miterlimit:4;stroke-dasharray:none;stroke-opacity:1"
                           id="rect4169"
                           width="134.60802"
                           height="137.11624"
                           x="444.19028"
                           y="802.18799" />
                        <path
                           sodipodi:nodetypes="cccccccccc"
                           inkscape:connector-curvature="0"
                           id="rect3034"
                           d="m 486.62602,836.95195 21.87839,43.32847 0,24.56382 8.89634,0 0,-24.56382 21.84551,-43.32847 -9.67067,0 -16.63944,32.61994 -15.99693,-32.61994 z"
                           style="fill:#ffffff;fill-opacity:1;stroke:#ffffff;stroke-width:2.42180896;stroke-miterlimit:4;stroke-dasharray:none" />
                      </g>
                      <path
                         id="path4237"
                         style="font-style:normal;font-variant:normal;font-weight:bold;font-stretch:normal;font-family:'.Helvetica Neue DeskInterface';-inkscape-font-specification:'.Helvetica Neue DeskInterface';stroke:none;stroke-width:2.72181487;stroke-miterlimit:4;stroke-dasharray:none"
                         d="m 630.20369,829.26103 0,71.15279 15.64564,0 0,-30.69336 28.79994,0 0,30.69336 15.64564,0 0,-71.15279 -15.64564,0 0,27.30513 -28.79994,0 0,-27.30513 -15.64564,0 z"
                         inkscape:connector-curvature="0" />
                      <path
                         id="path4239"
                         style="font-style:normal;font-variant:normal;font-weight:bold;font-stretch:normal;font-family:'.Helvetica Neue DeskInterface';-inkscape-font-specification:'.Helvetica Neue DeskInterface';stroke:none;stroke-width:2.72181487;stroke-miterlimit:4;stroke-dasharray:none"
                         d="m 702.03849,864.73777 q 0.29896,-4.98269 2.49134,-8.27126 2.19238,-3.28858 5.58061,-5.28165 3.38823,-1.99308 7.57369,-2.79031 4.28511,-0.89688 8.57022,-0.89688 3.8865,0 7.87265,0.59792 3.98615,0.49827 7.27472,2.09273 3.28858,1.59446 5.38131,4.48442 2.09273,2.7903 2.09273,7.47403 l 0,26.80686 q 0,3.48789 0.39861,6.67681 0.39862,3.18892 1.39516,4.78338 l -14.35015,0 q -0.39861,-1.19585 -0.69757,-2.39169 -0.19931,-1.2955 -0.29897,-2.591 -3.38822,3.48788 -7.9723,4.88303 -4.58407,1.39516 -9.36745,1.39516 -3.68719,0 -6.87611,-0.89689 -3.18892,-0.89688 -5.58061,-2.7903 -2.39169,-1.89342 -3.78685,-4.78338 -1.2955,-2.88996 -1.2955,-6.87611 0,-4.38477 1.49481,-7.17507 1.59446,-2.88996 3.98615,-4.58408 2.49135,-1.69411 5.58061,-2.49134 3.18892,-0.89689 6.37784,-1.39516 3.18893,-0.49826 6.27819,-0.79723 3.08927,-0.29896 5.48096,-0.89688 2.39169,-0.59792 3.78684,-1.69411 1.39516,-1.19585 1.2955,-3.38823 0,-2.29204 -0.79723,-3.58754 -0.69757,-1.39515 -1.99307,-2.09273 -1.19585,-0.79723 -2.88996,-0.99653 -1.59446,-0.29897 -3.48788,-0.29897 -4.18546,0 -6.57715,1.79377 -2.39169,1.79377 -2.79031,5.97923 l -14.15083,0 z m 32.68643,10.46364 q -0.89688,0.79723 -2.29203,1.2955 -1.2955,0.39862 -2.88996,0.69758 -1.49481,0.29896 -3.18892,0.49827 -1.69412,0.19931 -3.38823,0.49827 -1.59446,0.29896 -3.18892,0.79723 -1.49481,0.49827 -2.69066,1.39515 -1.09619,0.79723 -1.79376,2.09273 -0.69758,1.2955 -0.69758,3.28857 0,1.89343 0.69758,3.18892 0.69757,1.2955 1.89342,2.09273 1.19584,0.69758 2.7903,0.99654 1.59446,0.29896 3.28858,0.29896 4.18546,0 6.47749,-1.39515 2.29204,-1.39515 3.38823,-3.28857 1.09619,-1.99308 1.2955,-3.98616 0.29896,-1.99307 0.29896,-3.18892 l 0,-5.28165 z"
                         inkscape:connector-curvature="0" />
                      <path
                         id="path4241"
                         style="font-style:normal;font-variant:normal;font-weight:bold;font-stretch:normal;font-family:'.Helvetica Neue DeskInterface';-inkscape-font-specification:'.Helvetica Neue DeskInterface';stroke:none;stroke-width:2.72181487;stroke-miterlimit:4;stroke-dasharray:none"
                         d="m 794.97963,867.0298 13.85188,0 q -0.29896,-4.98268 -2.39169,-8.57022 -2.09273,-3.68719 -5.48096,-6.07888 -3.28857,-2.49134 -7.57369,-3.68719 -4.18545,-1.19584 -8.76953,-1.19584 -6.27819,0 -11.16122,2.09273 -4.88304,2.09272 -8.27126,5.87957 -3.38823,3.68719 -5.182,8.86918 -1.69411,5.08235 -1.69411,11.06157 0,5.77992 1.89342,10.66296 1.89342,4.78338 5.28165,8.27126 3.38823,3.48788 8.17161,5.48096 4.88303,1.89342 10.66295,1.89342 10.26434,0 16.84149,-5.38131 6.57715,-5.3813 7.9723,-15.64564 l -13.65257,0 q -0.69757,4.78338 -3.48788,7.67334 -2.69065,2.79031 -7.77299,2.79031 -3.28858,0 -5.58061,-1.49481 -2.29204,-1.49481 -3.68719,-3.78684 -1.2955,-2.39169 -1.89343,-5.28165 -0.59792,-2.88996 -0.59792,-5.68027 0,-2.88996 0.59792,-5.77992 0.59793,-2.98961 1.99308,-5.3813 1.49481,-2.49134 3.78684,-3.98615 2.29204,-1.59446 5.68027,-1.59446 9.06849,0 10.46364,8.86918 z"
                         inkscape:connector-curvature="0" />
                      <path
                         id="path4243"
                         style="font-style:normal;font-variant:normal;font-weight:bold;font-stretch:normal;font-family:'.Helvetica Neue DeskInterface';-inkscape-font-specification:'.Helvetica Neue DeskInterface';stroke:none;stroke-width:2.72181487;stroke-miterlimit:4;stroke-dasharray:none"
                         d="m 818.46211,829.26103 0,71.15279 14.15084,0 0,-17.73837 5.48095,-5.28165 14.15084,23.02002 17.14045,0 -21.62487,-32.58678 19.43249,-18.93422 -16.74184,0 -17.83802,18.5356 0,-38.16739 -14.15084,0 z"
                         inkscape:connector-curvature="0" />
                      <path
                         id="path4245"
                         style="font-style:normal;font-variant:normal;font-weight:bold;font-stretch:normal;font-family:'.Helvetica Neue DeskInterface';-inkscape-font-specification:'.Helvetica Neue DeskInterface';stroke:none;stroke-width:2.72181487;stroke-miterlimit:4;stroke-dasharray:none"
                         d="m 909.11123,869.12253 -23.02002,0 q 0.0996,-1.4948 0.59792,-3.38822 0.59793,-1.89343 1.89342,-3.58754 1.39516,-1.69411 3.58754,-2.79031 2.29204,-1.19584 5.68026,-1.19584 5.182,0 7.67335,2.7903 2.59099,2.79031 3.58753,8.17161 z m -23.02002,8.96884 37.17086,0 q 0.39861,-5.97922 -0.99654,-11.46018 -1.39515,-5.48096 -4.58407,-9.76607 -3.08927,-4.28511 -7.97231,-6.77646 -4.88303,-2.59099 -11.46018,-2.59099 -5.87957,0 -10.76261,2.09273 -4.78338,2.09272 -8.27126,5.77991 -3.48788,3.58754 -5.3813,8.57023 -1.89343,4.98269 -1.89343,10.76261 0,5.97922 1.79377,10.96191 1.89342,4.98269 5.28165,8.57022 3.38823,3.58754 8.27127,5.58062 4.88303,1.89342 10.96191,1.89342 8.76953,0 14.94807,-3.98615 6.17853,-3.98615 9.16814,-13.25396 l -12.45672,0 q -0.69758,2.3917 -3.78684,4.58408 -3.08927,2.09273 -7.37438,2.09273 -5.97923,0 -9.16815,-3.08927 -3.18892,-3.08927 -3.48788,-9.96538 z"
                         inkscape:connector-curvature="0" />
                      <path
                         id="path4247"
                         style="font-style:normal;font-variant:normal;font-weight:bold;font-stretch:normal;font-family:'.Helvetica Neue DeskInterface';-inkscape-font-specification:'.Helvetica Neue DeskInterface';stroke:none;stroke-width:2.72181487;stroke-miterlimit:4;stroke-dasharray:none"
                         d="m 931.69682,848.89282 0,51.521 14.15084,0 0,-23.21933 q 0,-3.48788 0.69758,-6.4775 0.69757,-2.98961 2.29203,-5.18199 1.69412,-2.29204 4.38477,-3.58754 2.69065,-1.2955 6.57715,-1.2955 1.2955,0 2.69065,0.19931 1.39515,0.0996 2.39169,0.29896 l 0,-13.1543 q -1.69411,-0.49826 -3.08927,-0.49826 -2.69065,0 -5.18199,0.79723 -2.49135,0.79723 -4.68373,2.29203 -2.19238,1.39516 -3.8865,3.48788 -1.69411,1.99308 -2.69065,4.38477 l -0.19931,0 0,-9.56676 -13.45326,0 z"
                         inkscape:connector-curvature="0" />
                      <path
                         id="path4249"
                         style="font-style:normal;font-variant:normal;font-weight:bold;font-stretch:normal;font-family:'.Helvetica Neue DeskInterface';-inkscape-font-specification:'.Helvetica Neue DeskInterface';stroke:none;stroke-width:2.72181487;stroke-miterlimit:4;stroke-dasharray:none"
                         d="m 999.84132,829.26103 0,71.15279 14.64908,0 0,-47.6345 0.1993,0 29.5972,47.6345 15.6456,0 0,-71.15279 -14.6491,0 0,47.73415 -0.1993,0 -29.6968,-47.73415 -15.54598,0 z"
                         inkscape:connector-curvature="0" />
                      <path
                         id="path4251"
                         style="font-style:normal;font-variant:normal;font-weight:bold;font-stretch:normal;font-family:'.Helvetica Neue DeskInterface';-inkscape-font-specification:'.Helvetica Neue DeskInterface';stroke:none;stroke-width:2.72181487;stroke-miterlimit:4;stroke-dasharray:none"
                         d="m 1106.9536,869.12253 -23.02,0 q 0.1,-1.4948 0.5979,-3.38822 0.5979,-1.89343 1.8934,-3.58754 1.3952,-1.69411 3.5875,-2.79031 2.2921,-1.19584 5.6803,-1.19584 5.182,0 7.6733,2.7903 2.591,2.79031 3.5876,8.17161 z m -23.02,8.96884 37.1708,0 q 0.3986,-5.97922 -0.9965,-11.46018 -1.3952,-5.48096 -4.5841,-9.76607 -3.0893,-4.28511 -7.9723,-6.77646 -4.883,-2.59099 -11.4602,-2.59099 -5.8796,0 -10.7626,2.09273 -4.7834,2.09272 -8.2713,5.77991 -3.4878,3.58754 -5.3813,8.57023 -1.8934,4.98269 -1.8934,10.76261 0,5.97922 1.7938,10.96191 1.8934,4.98269 5.2816,8.57022 3.3883,3.58754 8.2713,5.58062 4.883,1.89342 10.9619,1.89342 8.7695,0 14.9481,-3.98615 6.1785,-3.98615 9.1681,-13.25396 l -12.4567,0 q -0.6976,2.3917 -3.7868,4.58408 -3.0893,2.09273 -7.3744,2.09273 -5.9792,0 -9.1682,-3.08927 -3.1889,-3.08927 -3.4878,-9.96538 z"
                         inkscape:connector-curvature="0" />
                      <path
                         id="path4253"
                         style="font-style:normal;font-variant:normal;font-weight:bold;font-stretch:normal;font-family:'.Helvetica Neue DeskInterface';-inkscape-font-specification:'.Helvetica Neue DeskInterface';stroke:none;stroke-width:2.72181487;stroke-miterlimit:4;stroke-dasharray:none"
                         d="m 1188.4345,900.41382 16.2436,-51.521 -14.5495,0 -9.4671,34.87882 -0.1993,0 -8.7695,-34.87882 -13.7522,0 -8.5703,34.97847 -0.1993,0 -9.4671,-34.97847 -14.948,0 16.3432,51.521 14.6491,0 8.7695,-34.57986 0.1993,0 9.1682,34.57986 14.5494,0 z"
                         inkscape:connector-curvature="0" />
                      <path
                         id="path4255"
                         style="font-style:normal;font-variant:normal;font-weight:bold;font-stretch:normal;font-family:'.Helvetica Neue DeskInterface';-inkscape-font-specification:'.Helvetica Neue DeskInterface';stroke:none;stroke-width:2.72181487;stroke-miterlimit:4;stroke-dasharray:none"
                         d="m 1221.7064,883.67198 -13.4532,0 q 0.1993,5.182 2.292,8.66988 2.1924,3.38823 5.481,5.48096 3.3882,2.09273 7.6733,2.98961 4.2851,0.89689 8.7695,0.89689 4.3848,0 8.5703,-0.89689 4.2851,-0.79723 7.5737,-2.88996 3.2885,-2.09273 5.2816,-5.48095 2.0927,-3.48789 2.0927,-8.57023 0,-3.58753 -1.3951,-5.97922 -1.3952,-2.49135 -3.6872,-4.08581 -2.292,-1.69411 -5.2817,-2.69065 -2.8899,-0.99654 -5.9792,-1.69411 -2.9896,-0.69758 -5.8796,-1.2955 -2.8899,-0.59793 -5.182,-1.2955 -2.1923,-0.79723 -3.5875,-1.99308 -1.3951,-1.19584 -1.3951,-3.08926 0,-1.59447 0.7972,-2.49135 0.7972,-0.99654 1.8934,-1.49481 1.1959,-0.49826 2.591,-0.59792 1.3952,-0.19931 2.591,-0.19931 3.7869,0 6.5772,1.49481 2.7903,1.39515 3.0892,5.48096 l 13.4533,0 q -0.3986,-4.78338 -2.4914,-7.87265 -1.993,-3.18892 -5.0823,-5.08234 -3.0893,-1.89342 -7.0754,-2.69065 -3.8865,-0.79723 -8.072,-0.79723 -4.1854,0 -8.1716,0.79723 -3.9861,0.69757 -7.1751,2.59099 -3.1889,1.79377 -5.182,4.98269 -1.8934,3.18892 -1.8934,8.17161 0,3.38823 1.3952,5.77992 1.3951,2.29204 3.6872,3.8865 2.292,1.4948 5.182,2.49134 2.9896,0.89689 6.0788,1.59446 7.5737,1.59446 11.7592,3.18892 4.2851,1.59446 4.2851,4.78338 0,1.89343 -0.8969,3.18892 -0.8969,1.19585 -2.292,1.99308 -1.2955,0.69758 -2.9896,1.09619 -1.5945,0.29896 -3.0893,0.29896 -2.0927,0 -4.0858,-0.49827 -1.8934,-0.49826 -3.3882,-1.4948 -1.4948,-1.09619 -2.4914,-2.69065 -0.8969,-1.69412 -0.8969,-3.98616 z"
                         inkscape:connector-curvature="0" />
                    </g>
                  </g>
                </g>
              </g>
            </g>
          </g>
        </g>
      </g>
    </g>
  </g>
</svg>
