<?xml version="1.0" standalone="no"?>
<!DOCTYPE svg PUBLIC "-//W3C//DTD SVG 20010904//EN"
 "http://www.w3.org/TR/2001/REC-SVG-20010904/DTD/svg10.dtd">
<svg version="1.0" xmlns="http://www.w3.org/2000/svg"
 width="500.000000pt" height="500.000000pt" viewBox="0 0 500.000000 500.000000"
 preserveAspectRatio="xMidYMid meet">
<metadata>
Created by potrace 1.11, written by Peter Selinger 2001-2013
</metadata>
<g transform="translate(0.000000,500.000000) scale(0.100000,-0.100000)"
fill="#000000" stroke="none">
<path d="M1654 4766 c-77 -77 -143 -147 -148 -153 -5 -9 99 -118 303 -323 171
-170 305 -310 298 -311 -6 0 -318 -1 -692 -2 -634 -2 -682 -3 -713 -20 -18
-10 -37 -29 -42 -43 -6 -15 -10 -268 -10 -628 l0 -602 -133 -1 c-147 -2 -194
-13 -222 -56 -14 -22 -16 -72 -13 -448 3 -418 3 -425 26 -474 25 -55 64 -100
102 -120 15 -7 67 -13 130 -14 57 -1 106 -3 107 -4 1 -2 3 -253 5 -558 l3
-555 30 -59 c20 -39 45 -69 72 -89 l42 -29 1698 0 c1382 0 1703 2 1723 13 39
20 79 66 103 118 22 46 22 55 25 605 l3 557 88 0 c49 0 103 3 122 7 50 10 113
80 138 155 20 59 21 82 21 469 0 392 -1 407 -20 432 -30 38 -76 48 -220 50
l-130 1 0 602 c0 360 -4 613 -10 628 -5 14 -24 33 -42 43 -31 17 -80 18 -723
20 -379 1 -691 2 -692 2 0 1 138 140 308 311 170 170 309 312 309 315 0 4 -67
73 -149 155 l-148 149 -352 -352 -351 -352 -348 347 c-191 191 -349 349 -352
351 -3 3 -68 -59 -146 -137z m2326 -2636 l0 -1480 -22 -1 c-30 -1 -2909 -1
-2925 0 -10 1 -13 304 -13 1481 l0 1479 1480 0 1480 0 0 -1479z"/>
<path d="M1697 3120 c-116 -20 -218 -100 -271 -210 -28 -58 -31 -75 -31 -155
0 -76 4 -99 26 -145 64 -138 190 -220 337 -220 80 0 133 15 197 55 64 40 111
94 143 164 22 47 26 71 26 146 1 81 -2 97 -30 155 -38 78 -97 139 -167 174
-82 39 -149 50 -230 36z"/>
<path d="M3170 3118 c-162 -29 -290 -176 -296 -344 -9 -214 154 -384 370 -386
100 -1 213 53 279 134 151 185 94 458 -118 564 -75 37 -149 47 -235 32z"/>
<path d="M1699 1748 c-43 -11 -80 -42 -104 -88 -16 -30 -19 -64 -20 -250 -3
-286 10 -331 103 -376 32 -15 105 -17 816 -17 430 0 792 4 806 8 41 12 88 53
107 93 15 32 18 67 17 272 0 202 -2 240 -17 267 -21 39 -53 71 -87 86 -31 14
-1566 18 -1621 5z m429 -287 l-3 -185 -180 0 -180 0 -3 185 -2 185 185 0 185
0 -2 -185z m553 180 c7 -32 2 -354 -5 -359 -17 -10 -347 -8 -355 3 -6 8 -8
345 -2 358 2 6 361 3 362 -2z m559 -180 l0 -186 -173 1 c-94 1 -178 2 -184 3
-10 1 -13 45 -13 184 l0 183 185 0 185 0 0 -185z"/>
</g>
</svg>
